<svg id="Capa_1" enable-background="new 0 0 512 512" height="512" viewBox="0 0 512 512" width="512" xmlns="http://www.w3.org/2000/svg"><g><g><g><g><g><g><path d="m72.567 434.573c-44.906-46.121-72.567-109.116-72.567-178.573 0-141.385 114.615-256 256-256s256 114.615 256 256c0 69.457-27.661 132.452-72.567 178.573z" fill="#00c8c8"/></g></g></g></g></g><path d="m512 256c0-.363-.001-.726-.002-1.089l-174.584-174.829-231.595 265.194 89.297 89.297h244.316c44.907-46.121 72.568-109.116 72.568-178.573z" fill="#00a0aa"/><g><path d="m113.193 345.276h-7.374v-147.564c0-54.905 44.509-99.414 99.414-99.414h7.374v147.564c0 54.905-44.509 99.414-99.414 99.414z" fill="#fdba12"/></g><g><g><path d="m140.274 374.665c-22.038 7.219-41.108 21.451-54.299 40.523l-13.408 19.385c22.289 22.892 48.826 41.626 78.339 54.929l7.107-59.16-7.107-59.16z" fill="#636978"/></g><g><path d="m439.433 434.573-13.408-19.385c-13.192-19.072-32.262-33.304-54.299-40.523l-10.632-3.483-16.153 59.523 16.153 58.798c29.512-13.304 56.05-32.038 78.339-54.93z" fill="#414952"/></g><g><path d="m256 358.425-45.743-9.774c-3.179 3.02-7.027 5.39-11.385 6.817l-47.966 15.713v118.32c32.064 14.455 67.639 22.499 105.094 22.499 1.055 0 2.103-.03 3.154-.042v-154.207z" fill="#fff"/></g><g><path d="m361.094 371.182-47.966-15.713c-4.359-1.428-8.207-3.797-11.385-6.817l-45.622 9.748v153.599c37.41-.017 72.944-8.058 104.973-22.496z" fill="#e9edf5"/></g></g><g><path d="m292.317 326.752v-39.35h-72.634v39.35c0 8.478-3.551 16.317-9.426 21.899 24.655 26.691 66.83 26.691 91.485 0-5.874-5.581-9.425-13.421-9.425-21.899z" fill="#ffcdbe"/></g><g><path d="m292.317 326.752v-39.35h-36.197v81.264c16.667-.032 33.324-6.702 45.622-20.015-5.874-5.581-9.425-13.421-9.425-21.899z" fill="#ffbeaa"/></g><g><g><circle cx="167.059" cy="223.025" fill="#ffcdbe" r="32.975"/></g><g><circle cx="344.941" cy="223.025" fill="#ffbeaa" r="32.975"/></g></g><g><path d="m256 332.337c-51.82 0-93.828-42.008-93.828-93.828v-57.966c0-51.82 42.008-93.828 93.828-93.828 51.82 0 93.828 42.008 93.828 93.828v57.966c0 51.819-42.008 93.828-93.828 93.828z" fill="#ffdecf"/></g><g><path d="m256.121 86.717v245.618c51.764-.065 93.707-42.047 93.707-93.826v-57.966c0-51.779-41.943-93.761-93.707-93.826z" fill="#ffcdbe"/></g><g><path d="m257.075 350.328c-62.232 0-112.862-50.63-112.862-112.862v-45.486h30v45.486c0 45.69 37.172 82.862 82.862 82.862 45.689 0 82.861-37.172 82.861-82.862v-45.486h30v45.486c0 62.232-50.628 112.862-112.861 112.862z" fill="#555a66"/></g><g><path d="m339.937 191.98v45.486c0 45.69-37.172 82.862-82.861 82.862-.32 0-.635-.021-.955-.024v30.012c.318.003.635.012.955.012 62.232 0 112.861-50.63 112.861-112.862v-45.486z" fill="#333940"/></g><g><path d="m376.218 178.057c0-73.54-53.823-133.156-120.218-133.156-66.395 0-120.218 59.616-120.218 133.156v25.366h35.197l11.938 19.603h146.166l11.938-19.603h35.197z" fill="#fe6a16"/></g><g><path d="m256.121 44.903v178.122h72.962l11.938-19.603h35.197v-25.366c0-73.494-53.758-133.081-120.097-133.153z" fill="#f24500"/></g><g><path d="m256 44.901c-11.434 0-22.495 1.768-32.973 5.071l20.144 88.332h25.658l20.144-88.332c-10.478-3.303-21.539-5.071-32.973-5.071z" fill="#f24500"/></g><g><path d="m288.973 49.972c-10.441-3.291-21.461-5.056-32.852-5.069v93.4h12.708z" fill="#b72802"/></g><g><path d="m324.452 68.58-39.29 98.862 39.083-1.978 42.551-39.173c-8.926-23.408-23.722-43.399-42.344-57.711z" fill="#b72802"/></g><g><path d="m145.205 126.291 42.551 39.173 39.083 1.978-39.29-98.862c-18.623 14.312-33.419 34.303-42.344 57.711z" fill="#f24500"/></g><g><path d="m226.839 180.903h58.322v24.76h-58.322z" fill="#f24500"/></g><g><path d="m256.121 180.903h29.041v24.76h-29.041z" fill="#b72802"/></g></g></svg>